<svg width="512" height="384" viewBox="0 0 512 384" fill="none" xmlns="http://www.w3.org/2000/svg">
<path d="M168.439 336.969L89.2205 42.6591H133.271L212.49 336.969H168.439Z" fill="white"/>
<path d="M288.258 193.415V300H237.126V115.636H285.857V148.164H288.018C292.099 137.442 298.94 128.959 308.542 122.718C318.145 116.397 329.787 113.236 343.471 113.236C356.274 113.236 367.436 116.036 376.959 121.638C386.481 127.239 393.883 135.241 399.164 145.643C404.445 155.966 407.086 168.289 407.086 182.612V300H355.954V191.734C356.034 180.452 353.153 171.65 347.312 165.328C341.47 158.927 333.428 155.726 323.186 155.726C316.304 155.726 310.223 157.206 304.942 160.167C299.74 163.128 295.659 167.449 292.699 173.13C289.818 178.731 288.338 185.493 288.258 193.415Z" fill="white"/>
</svg>
