<svg width="512" height="384" viewBox="0 0 512 384" fill="none" xmlns="http://www.w3.org/2000/svg">
<g clip-path="url(#clip0_9_7)">
<path d="M412.868 79.8864C404.676 79.8864 398.048 73.2568 398.048 65.0893C398.048 56.91 404.676 50.2921 412.868 50.2921C421.049 50.2921 427.689 56.91 427.689 65.0893C427.689 73.2568 421.049 79.8864 412.868 79.8864ZM265.68 332.708C257.488 332.708 250.86 326.078 250.86 317.911C250.86 309.732 257.488 303.114 265.68 303.114C273.86 303.114 280.489 309.732 280.489 317.911C280.489 326.078 273.86 332.708 265.68 332.708ZM412.868 38C397.885 38 385.737 50.129 385.737 65.0893C385.737 68.2817 386.542 71.2528 387.557 74.0957L260.277 291.905C247.977 294.48 238.548 304.861 238.548 317.911C238.548 332.871 250.696 345 265.68 345C280.652 345 292.8 332.871 292.8 317.911C292.8 314.905 291.995 312.155 291.096 309.452L419.018 90.9318C430.944 88.0773 440 77.8707 440 65.0893C440 50.129 427.852 38 412.868 38Z" fill="white"/>
<path d="M301.856 79.8864C293.664 79.8864 287.035 73.2568 287.035 65.0893C287.035 56.91 293.664 50.2921 301.856 50.2921C310.036 50.2921 316.664 56.91 316.664 65.0893C316.664 73.2568 310.036 79.8864 301.856 79.8864ZM154.656 332.708C146.475 332.708 139.835 326.078 139.835 317.911C139.835 309.732 146.475 303.114 154.656 303.114C162.848 303.114 169.476 309.732 169.476 317.911C169.476 326.078 162.848 332.708 154.656 332.708ZM301.856 38C286.86 38 274.724 50.129 274.724 65.0893C274.724 68.2817 275.529 71.2528 276.544 74.0957L149.264 291.905C136.953 294.48 127.524 304.861 127.524 317.911C127.524 332.871 139.672 345 154.656 345C169.639 345 181.787 332.871 181.787 317.911C181.787 314.905 180.982 312.155 180.084 309.452L308.005 90.9318C319.932 88.0773 328.987 77.8707 328.987 65.0893C328.987 50.129 316.828 38 301.856 38Z" fill="white"/>
<path d="M99.1318 125.175C107.312 125.175 113.952 131.805 113.952 139.972C113.952 148.14 107.312 154.769 99.1318 154.769C90.9397 154.769 84.3114 148.14 84.3114 139.972C84.3114 131.805 90.9397 125.175 99.1318 125.175ZM99.1318 167.061C114.115 167.061 126.264 154.932 126.264 139.972C126.264 136.978 125.447 134.216 124.548 131.513C120.954 120.759 111.105 112.883 99.1318 112.883C97.2179 112.883 95.5375 113.594 93.7287 113.978C81.429 116.541 72 126.923 72 139.972C72 154.932 84.148 167.061 99.1318 167.061Z" fill="white"/>
<path d="M84.3114 234.627C84.3114 226.448 90.9514 219.83 99.1318 219.83C107.312 219.83 113.952 226.448 113.952 234.627C113.952 242.795 107.312 249.413 99.1318 249.413C90.9514 249.413 84.3114 242.795 84.3114 234.627ZM126.264 234.627C126.264 231.621 125.447 228.872 124.548 226.168C120.954 215.414 111.116 207.538 99.1318 207.538C97.2179 207.538 95.5375 208.249 93.7287 208.622C81.429 211.196 72 221.578 72 234.627C72 249.576 84.148 261.717 99.1318 261.717C114.115 261.717 126.264 249.576 126.264 234.627Z" fill="white"/>
</g>
<defs>
<clipPath id="clip0_9_7">
<rect width="368" height="307" fill="white" transform="translate(72 38)"/>
</clipPath>
</defs>
</svg>
