<svg width="512" height="384" viewBox="0 0 512 384" fill="none" xmlns="http://www.w3.org/2000/svg">
<path d="M195.752 295.081C178.66 295.081 163.938 291.95 151.584 285.687C139.23 279.424 129.711 270.834 123.027 259.917C116.342 248.999 113 236.516 113 222.467C113 211.634 115.285 202.029 119.854 193.65C124.507 185.187 130.896 177.359 139.019 170.165C147.226 162.887 156.661 155.609 167.322 148.33L204.891 120.402C212.252 115.578 218.133 110.415 222.533 104.914C227.017 99.4133 229.26 92.2196 229.26 83.3333C229.26 76.7321 226.34 70.3424 220.502 64.1643C214.748 57.9862 207.175 54.8972 197.783 54.8972C191.183 54.8972 185.345 56.5898 180.268 59.9751C175.276 63.2757 171.341 67.5073 168.464 72.6698C165.672 77.7477 164.276 82.9948 164.276 88.4112C164.276 94.5047 165.926 100.683 169.226 106.945C172.611 113.124 176.884 119.471 182.045 125.988C187.291 132.42 192.706 139.021 198.291 145.791L317.597 291.526H281.551L183.06 172.704C173.922 161.702 165.63 151.715 158.184 142.745C150.738 133.774 144.815 124.93 140.415 116.213C136.015 107.496 133.815 98.0592 133.815 87.9034C133.815 76.2243 136.396 65.9839 141.557 57.1822C146.803 48.2959 154.122 41.3985 163.515 36.4899C172.991 31.4966 184.076 29 196.768 29C209.798 29 221.01 31.5389 230.402 36.6168C239.794 41.6101 247.029 48.2536 252.105 56.5475C257.182 64.7567 259.721 73.6854 259.721 83.3333C259.721 95.7741 256.632 106.565 250.455 115.705C244.279 124.845 235.859 133.35 225.198 141.221L173.414 179.813C161.738 188.445 153.826 196.824 149.68 204.949C145.534 213.073 143.461 218.913 143.461 222.467C143.461 230.592 145.576 238.166 149.807 245.191C154.038 252.215 160.003 257.886 167.703 262.202C175.403 266.518 184.414 268.676 194.737 268.676C204.552 268.676 214.114 266.603 223.421 262.456C232.729 258.224 241.148 252.131 248.678 244.175C256.294 236.22 262.301 226.657 266.701 215.485C271.186 204.314 273.428 191.746 273.428 177.782H302.366C302.366 195.047 300.378 209.138 296.401 220.055C292.424 230.973 287.939 239.521 282.947 245.699C277.955 251.877 273.936 256.489 270.89 259.536C269.874 260.805 268.944 262.075 268.097 263.344C267.251 264.614 266.32 265.883 265.305 267.153C256.928 276.547 246.352 283.571 233.575 288.226C220.798 292.796 208.191 295.081 195.752 295.081Z" fill="white"/>
<path d="M395.431 255.981L393.4 269.692C391.962 279.34 389.762 289.665 386.8 300.667C383.923 311.669 380.92 322.036 377.789 331.769C374.658 341.501 372.077 349.245 370.047 355H347.201C348.301 349.584 349.739 342.432 351.516 333.546C353.293 324.66 355.07 314.715 356.847 303.713C358.708 292.796 360.231 281.625 361.416 270.199L362.939 255.981H395.431ZM377.154 148.838C370.893 148.838 365.52 146.595 361.035 142.11C356.551 137.624 354.308 132.25 354.308 125.988C354.308 119.725 356.551 114.351 361.035 109.865C365.52 105.38 370.893 103.137 377.154 103.137C383.416 103.137 388.789 105.38 393.273 109.865C397.758 114.351 400 119.725 400 125.988C400 130.134 398.942 133.943 396.827 137.413C394.796 140.883 392.046 143.675 388.577 145.791C385.193 147.822 381.385 148.838 377.154 148.838Z" fill="white"/>
</svg>
