<svg width="512" height="384" viewBox="0 0 512 384" fill="none" xmlns="http://www.w3.org/2000/svg">
<path d="M141.041 362.625C132.947 362.625 126.002 359.727 120.205 353.93C114.408 348.133 111.51 341.188 111.51 333.094C111.51 325 114.408 318.055 120.205 312.258C126.002 306.461 132.947 303.562 141.041 303.562C149.135 303.562 156.08 306.461 161.877 312.258C167.674 318.055 170.572 325 170.572 333.094C170.572 338.453 169.205 343.375 166.471 347.859C163.846 352.344 160.291 355.953 155.807 358.688C151.432 361.312 146.51 362.625 141.041 362.625Z" fill="white"/>
<path d="M304.365 213L306.99 140.812L245.959 179.531L230.209 151.969L294.521 118.5L230.209 85.0312L245.959 57.4688L306.99 96.1875L304.365 24H335.865L333.24 96.1875L394.271 57.4688L410.021 85.0312L345.709 118.5L410.021 151.969L394.271 179.531L333.24 140.812L335.865 213H304.365Z" fill="white"/>
</svg>
